PathFileType	4	(X/Y/Z)	C:\Users\dbl\Desktop\20210112(1)\20210112\bx_y_5_1802.trc
DataRate	CameraRate	NumFrames	NumMarkers	Units	OrigDataRate	OrigDataStartFrame	OrigNumFrames
50.00	50.00	       5	43	mm	50.00	1	       478
Frame#	Time	Top.Head			R.Acromium			L.Acromium			Sternum			R.ASIS			L.ASIS			V.Sacral			R.Thigh.Upper			R.Thigh.Front			R.Thigh.Rear			R.Knee.Lat			R.Knee.Med			R.Shank.Upper			R.Shank.Front			R.Shank.Rear			R.Ankle.Lat			R.Midfoot.Lat			R.Toe.Lat			R.Toe.Tip			R.Toe.Med			R.Ankle.Med			R.Midfoot.Sup			R.Heel			L.Thigh.Upper			L.Thigh.Front			L.Thigh.Rear			L.Knee.Lat			L.Knee.Med			L.Shank.Upper			L.Shank.Front			L.Shank.Rear			L.Ankle.Lat			L.Midfoot.Lat			L.Toe.Lat			L.Toe.Tip			L.Toe.Med			L.Ankle.Med			L.Midfoot.Sup			L.Heel			origin1 front left			origin2 front right			origin 3 back right			origin 4 back leftt			
		X1	Y1	Z1	X2	Y2	Z2	X3	Y3	Z3	X4	Y4	Z4	X5	Y5	Z5	X6	Y6	Z6	X7	Y7	Z7	X8	Y8	Z8	X9	Y9	Z9	X10	Y10	Z10	X11	Y11	Z11	X12	Y12	Z12	X13	Y13	Z13	X14	Y14	Z14	X15	Y15	Z15	X16	Y16	Z16	X17	Y17	Z17	X18	Y18	Z18	X19	Y19	Z19	X20	Y20	Z20	X21	Y21	Z21	X22	Y22	Z22	X23	Y23	Z23	X24	Y24	Z24	X25	Y25	Z25	X26	Y26	Z26	X27	Y27	Z27	X28	Y28	Z28	X29	Y29	Z29	X30	Y30	Z30	X31	Y31	Z31	X32	Y32	Z32	X33	Y33	Z33	X34	Y34	Z34	X35	Y35	Z35	X36	Y36	Z36	X37	Y37	Z37	X38	Y38	Z38	X39	Y39	Z39	X40	Y40	Z40	X41	Y41	Z41	X42	Y42	Z42	X43	Y43	Z43	

1	0.000	-704.01520	120.79301	1853.29041	-701.26526	-65.68451	1564.32397	-713.26367	285.21686	1541.33813	-613.29163	103.31304	1435.60034	-609.91260	-12.76723	1049.46838	-597.38080	212.70279	1065.09460	-809.77972	95.69342	1046.11560	-664.54297	-70.59056	853.54474	-604.97003	-9.87302	801.22314	-704.43988	-53.61254	705.56244	-716.14746	-29.24123	615.89453	-703.83301	79.16503	575.78241	-730.80658	-25.52232	566.15558	-679.26416	15.86794	520.42456	-776.78986	-33.50790	487.34952	-766.93347	-3.00337	205.26726	-665.72791	-68.11104	162.43669	-624.90399	-79.89318	158.83746	-560.29932	-45.42361	162.93698	-601.64917	17.39585	166.41418	-714.68610	78.51337	216.08366	-672.15454	55.72995	157.90474	-792.33801	59.51743	174.99855	-647.45734	274.80707	873.93408	-598.08472	206.02698	822.31915	-698.16455	270.21756	746.84143	-729.96240	247.88760	636.29279	-698.98627	139.40465	573.29980	-734.33502	241.93205	575.81812	-681.94049	200.78845	533.13464	-776.69080	253.00987	503.00452	-771.12518	222.19655	204.64868	-666.98242	299.64819	159.40517	-629.89532	307.98349	161.51360	-562.45697	264.48026	165.90935	-594.67212	225.41342	173.90697	-709.67828	152.95642	216.85089	-674.31683	172.64673	157.75572	-795.31726	171.80823	183.98654	-528.08679	304.23312	146.60699	-517.98950	-72.65875	142.46167	-875.97748	-78.88188	141.21204	-882.73486	295.96039	144.46976	
2	0.020	-703.34613	120.93799	1853.35010	-701.22943	-65.71104	1564.38379	-712.88434	285.23956	1541.38538	-612.86560	103.24201	1435.63757	-610.25165	-12.98788	1049.53101	-597.37225	212.67183	1065.23291	-809.91730	95.74246	1046.19763	-665.02820	-70.69108	853.63123	-605.10992	-9.94087	801.44324	-704.68610	-53.69240	705.62408	-716.14905	-29.40695	616.06665	-703.54633	79.12764	575.94733	-730.84961	-25.53725	566.19989	-679.29132	15.77956	520.36450	-776.86090	-33.46151	487.35831	-767.00128	-3.05387	205.20851	-665.76630	-68.17463	162.32771	-624.91547	-79.90455	158.78943	-560.31458	-45.39953	163.08719	-601.65863	17.42787	166.46053	-714.63446	78.48695	216.14345	-672.09088	55.57574	158.03693	-792.36798	59.44751	174.92967	-647.73645	274.94009	873.94928	-598.11078	206.04372	822.55554	-698.19336	270.23074	746.84503	-729.90137	247.80846	636.34491	-698.39856	139.31648	573.42224	-734.09637	241.93364	575.93860	-681.78644	200.73427	533.21808	-776.39423	252.88164	502.92953	-771.08112	222.25407	204.61496	-667.03156	299.62424	159.45964	-629.88708	307.99844	161.53094	-562.41882	264.44824	165.92906	-594.67249	225.27542	173.90921	-709.81738	152.87253	216.86925	-674.32330	172.65259	157.75119	-795.32587	171.83113	184.04414	-528.09259	304.27304	146.55435	-517.96362	-72.66017	142.53970	-875.97681	-78.88300	141.20184	-882.67743	296.04294	144.51379	
3	0.040	-702.59247	121.06520	1853.42822	-701.14661	-65.73826	1564.46082	-712.44348	285.28229	1541.43982	-612.48987	103.13198	1435.68628	-610.54919	-13.23611	1049.58008	-597.39117	212.62146	1065.39771	-810.08112	95.79778	1046.26282	-665.46326	-70.78542	853.72485	-605.23492	-10.02182	801.63666	-704.93359	-53.82841	705.69977	-716.22937	-29.49480	616.15479	-703.32666	79.10162	576.06647	-730.90753	-25.55865	566.23010	-679.32135	15.65925	520.29718	-776.94305	-33.38775	487.35190	-767.07874	-3.10690	205.16943	-665.80005	-68.23181	162.25587	-624.92914	-79.92075	158.74248	-560.35779	-45.38733	163.17844	-601.67249	17.44823	166.52014	-714.56885	78.45047	216.21545	-672.06256	55.44617	158.17319	-792.34454	59.38327	174.86714	-647.97821	275.05771	873.99323	-598.15265	206.08339	822.81958	-698.20978	270.22818	746.88593	-729.82233	247.67393	636.38934	-697.70209	139.27286	573.55872	-733.81586	241.92580	576.07001	-681.52167	200.66667	533.30396	-776.10419	252.76453	502.88849	-771.04810	222.27475	204.60605	-667.07220	299.59805	159.50266	-629.87964	308.00177	161.55360	-562.39166	264.41486	165.93484	-594.67395	225.18443	173.88269	-709.92694	152.80234	216.87292	-674.32385	172.68288	157.71936	-795.32709	171.84276	184.07744	-528.11212	304.31448	146.50012	-517.96118	-72.64397	142.59245	-875.97687	-78.88184	141.19678	-882.64154	296.09692	144.54117	
4	0.060	-701.72113	121.16988	1853.52136	-700.98718	-65.76900	1564.55469	-711.93896	285.32916	1541.48999	-612.19647	102.91869	1435.78979	-610.79230	-13.48919	1049.62341	-597.44183	212.53667	1065.57971	-810.27325	95.84724	1046.32129	-665.81641	-70.84237	853.81604	-605.35889	-10.12887	801.78851	-705.18140	-54.04574	705.78882	-716.40692	-29.49478	616.12933	-703.20953	79.08933	576.13184	-730.96960	-25.57867	566.25928	-679.37592	15.53860	520.22461	-777.06036	-33.27784	487.32541	-767.16986	-3.17705	205.17242	-665.82483	-68.28501	162.23003	-624.94226	-79.94228	158.70415	-560.43652	-45.37487	163.18991	-601.69312	17.43691	166.59322	-714.49237	78.39098	216.29126	-672.08899	55.36120	158.31133	-792.27075	59.33011	174.81163	-648.16919	275.14865	874.07947	-598.20789	206.14105	823.11487	-698.19147	270.18695	746.99225	-729.70490	247.44489	636.42084	-696.91595	139.29863	573.73175	-733.48688	241.89149	576.20416	-681.07568	200.58698	533.42511	-775.81854	252.62906	502.86224	-771.02075	222.25699	204.62773	-667.09503	299.57364	159.52623	-629.86627	307.98032	161.57246	-562.38068	264.38358	165.92087	-594.65179	225.15157	173.84799	-709.95898	152.75989	216.85194	-674.30908	172.74396	157.65114	-795.32269	171.84129	184.07748	-528.13550	304.35013	146.45207	-517.97351	-72.63239	142.61938	-875.96515	-78.88779	141.19427	-882.62579	296.11588	144.55133	
5	0.080	-700.73828	121.26089	1853.61633	-700.74115	-65.81527	1564.65173	-711.39093	285.33734	1541.51929	-611.96869	102.54375	1436.00403	-611.02625	-13.67159	1049.68481	-597.52069	212.40910	1065.73584	-810.49762	95.87273	1046.41235	-666.09705	-70.82493	853.89661	-605.51404	-10.26842	801.90356	-705.41742	-54.28989	705.88281	-716.65881	-29.45616	616.02222	-703.17737	79.07201	576.17322	-731.02783	-25.58398	566.31372	-679.47418	15.46039	520.16675	-777.22351	-33.15483	487.30450	-767.27533	-3.28226	205.20494	-665.83978	-68.33291	162.22292	-624.95087	-79.96876	158.68895	-560.53302	-45.34531	163.15279	-601.72266	17.38336	166.66360	-714.42438	78.29013	216.34990	-672.15875	55.32689	158.44229	-792.19116	59.29233	174.76857	-648.31018	275.20831	874.20776	-598.25385	206.18570	823.41534	-698.12769	270.07800	747.14972	-729.53705	247.14294	636.45593	-696.16736	139.38387	573.96863	-733.13611	241.81914	576.31940	-680.47009	200.50592	533.59717	-775.50507	252.43216	502.81335	-770.98718	222.22307	204.67294	-667.09241	299.55203	159.53667	-629.84918	307.93112	161.57011	-562.37592	264.35925	165.88583	-594.59729	225.15540	173.83907	-709.89264	152.75130	216.80545	-674.27319	172.80470	157.57416	-795.31549	171.83214	184.05318	-528.14563	304.37289	146.42825	-517.98456	-72.64639	142.63429	-875.92438	-78.90598	141.19624	-882.61395	296.11163	144.55385	
